<?xml version="1.0" encoding="utf-8"?>
<!-- Generator: Adobe Illustrator 16.0.0, SVG Export Plug-In . SVG Version: 6.00 Build 0)  -->
<!DOCTYPE svg PUBLIC "-//W3C//DTD SVG 1.1//EN" "http://www.w3.org/Graphics/SVG/1.1/DTD/svg11.dtd">
<svg version="1.1" id="Layer_1" xmlns="http://www.w3.org/2000/svg" xmlns:xlink="http://www.w3.org/1999/xlink" x="0px" y="0px"
	 width="128px" height="12.406px" viewBox="0 0 128 12.406" enable-background="new 0 0 128 12.406" xml:space="preserve">
<path fill="#FFFFFF" d="M11.814,4.636h0.032c0.496-0.655,1.295-1.119,2.286-1.119c1.583,0,2.75,1.007,2.75,2.494v4.429l0.88,1.119
	h-4.349l0.832-1.119V5.564h-2.302v4.876l0.815,1.119H8.425l0.879-1.119V2.11L8.537,1.151H6.459v9.113l1.551,1.294H1.982l1.551-1.294
	V1.151H2.558L0,4.524V0l1.039,0.208h9.721L11.814,0V4.636z M25.181,7.066h-4.428c0.064,1.759,1.135,2.559,2.222,2.559
	c0.975,0,1.438-0.4,2.03-0.912l0.368,0.16c-0.543,1.791-1.647,2.894-3.31,2.894c-2.35,0-3.549-1.918-3.549-3.981
	c0-2.254,1.471-4.269,3.565-4.269c1.982,0,3.102,1.295,3.102,2.75V7.066z M22.895,6.124V5.899c0-0.799-0.304-1.215-0.879-1.215
	c-0.496,0-1.007,0.512-1.199,1.439H22.895z M38.931,11.559l1.167-1.279V3.805h-0.032l-3.406,8.601l-4.108-8.601H32.52v6.156
	l2.062,1.598h-4.716l1.599-1.598V1.967l-0.959-1.759h3.628l3.389,7.29h0.033l2.797-7.29h4.109l-1.439,1.119v8.953l1.439,1.279
	H38.931z M53.096,10.44l0.831,1.119l-3.31,0.16l0.128-1.47h-0.032c-0.735,1.039-1.599,1.519-2.446,1.519
	c-1.486,0-2.653-1.007-2.653-2.494V4.845l-0.768-1.12l3.405-0.16V9.72h2.206V4.845l-0.959-1.12l3.598-0.16V10.44z M59.906,1.167
	l-1.279-0.959l3.917-0.16V10.44l0.863,1.119l-3.342,0.16l0.176-1.199H60.21c-0.479,0.624-1.359,1.248-2.222,1.248
	c-2.03,0-3.197-1.694-3.197-3.837c0-2.446,1.375-4.412,3.901-4.412c0.511,0,0.975,0.096,1.215,0.192V1.167z M59.906,4.876h-0.624
	c-0.815,0-1.774,0.4-1.774,2.382c0,1.982,0.56,2.702,1.886,2.702h0.512V4.876z M78.772,10.28l1.278,1.279h-5.532l1.328-1.279V6.076
	h-3.598v4.204l1.327,1.279h-5.532l1.279-1.279V1.487l-1.279-1.279h5.532l-1.327,1.279v3.629h3.598V1.487l-1.328-1.279h5.532
	l-1.278,1.279V10.28z M84.607,11.767c-2.365,0-3.933-1.775-3.933-4.189c0-2.334,1.631-4.061,3.885-4.061
	c2.302,0,3.917,1.63,3.917,4.076C88.477,9.961,86.83,11.767,84.607,11.767z M84.783,10.6c0.527,0,0.912-0.688,0.912-2.495
	c0-2.606-0.656-3.453-1.343-3.453c-0.528,0-0.911,0.688-0.911,2.493C83.441,9.752,84.096,10.6,84.783,10.6z M96.886,11.719
	l-1.71-4.301l-2.19,4.301H92.33l-3.438-7.994h4.204l-0.735,1.439l1.231,3.101h0.064l0.975-2.03l-0.895-2.51h3.645l-0.527,1.184
	l1.327,3.325h0.063l0.991-2.062l-0.959-2.446h3.038l-3.821,7.994H96.886z M105.198,10.44l1.023,1.119h-4.731l1.07-1.119V1.327
	l-1.07-1.119l3.708-0.16V10.44z M113.607,7.066h-4.428c0.063,1.759,1.135,2.559,2.223,2.559c0.975,0,1.438-0.4,2.029-0.912
	l0.369,0.16c-0.545,1.791-1.647,2.894-3.311,2.894c-2.35,0-3.549-1.918-3.549-3.981c0-2.254,1.472-4.269,3.565-4.269
	c1.982,0,3.101,1.295,3.101,2.75V7.066z M111.322,6.124V5.899c0-0.799-0.305-1.215-0.88-1.215c-0.496,0-1.007,0.512-1.199,1.439
	H111.322z M118.068,10.44l1.231,1.119h-4.62l0.799-1.119V4.845l-0.799-1.12l2.861-0.16l-0.16,2.094h0.063
	c0.529-1.103,1.328-2.142,2.432-2.142c0.207,0,0.623,0.08,0.735,0.208v2.574h-2.543V10.44z M123.488,5.068
	c0,1.359,3.934,1.231,3.934,4.397c0,1.535-1.423,2.302-2.638,2.302c-1.039,0-1.808-0.208-2.478-0.208h-0.624V8.521h0.655
	l0.287,0.544c0.656,1.248,1.503,1.663,2.238,1.663c0.48,0,0.688-0.193,0.688-0.512c0-1.343-3.916-1.359-3.916-4.381
	c0-1.567,1.247-2.318,2.733-2.318c0.991,0,1.391,0.208,1.887,0.208h0.607v2.798h-0.672l-0.256-0.496
	c-0.56-1.071-1.166-1.567-1.726-1.567C123.745,4.46,123.488,4.668,123.488,5.068z"/>
</svg>
